<svg width="48" height="48" viewBox="0 0 48 48" fill="none" xmlns="http://www.w3.org/2000/svg">
  <!-- 背景 -->
  <rect width="48" height="48" rx="8" fill="url(#brandGradient)"/>
  
  <!-- 主要图标组合 -->
  <g transform="translate(8, 8)">
    <!-- 书本基础 -->
    <rect x="4" y="6" width="24" height="20" rx="2" fill="white" opacity="0.95"/>
    <rect x="4" y="6" width="24" height="3" rx="2" fill="url(#bookSpine)"/>
    
    <!-- 书页效果 -->
    <rect x="6" y="8" width="20" height="16" rx="1" fill="#f8fafc" stroke="#e2e8f0" stroke-width="0.5"/>
    
    <!-- 文字线条 -->
    <line x1="8" y1="12" x2="18" y2="12" stroke="#64748b" stroke-width="0.8" opacity="0.7"/>
    <line x1="8" y1="15" x2="22" y2="15" stroke="#64748b" stroke-width="0.8" opacity="0.7"/>
    <line x1="8" y1="18" x2="16" y2="18" stroke="#64748b" stroke-width="0.8" opacity="0.7"/>
    <line x1="8" y1="21" x2="20" y2="21" stroke="#64748b" stroke-width="0.8" opacity="0.7"/>
    
    <!-- AI智能标识 -->
    <circle cx="20" cy="10" r="3" fill="url(#aiGradient)" stroke="white" stroke-width="1"/>
    <circle cx="19" cy="9" r="0.5" fill="white" opacity="0.9"/>
    <circle cx="21" cy="9" r="0.5" fill="white" opacity="0.9"/>
    <circle cx="20" cy="11.5" r="0.8" fill="white" opacity="0.8"/>
    
    <!-- 智能连接线 -->
    <path d="M18 13L20 11L22 13" stroke="url(#connectionGradient)" stroke-width="1" fill="none" opacity="0.8"/>
    <circle cx="18" cy="13" r="0.8" fill="#3b82f6" opacity="0.7"/>
    <circle cx="22" cy="13" r="0.8" fill="#8b5cf6" opacity="0.7"/>
    
    <!-- 装饰性元素 -->
    <circle cx="12" cy="4" r="1" fill="#60a5fa" opacity="0.6"/>
    <circle cx="16" cy="28" r="1" fill="#34d399" opacity="0.6"/>
    <circle cx="28" cy="16" r="1" fill="#f59e0b" opacity="0.6"/>
    <circle cx="2" cy="20" r="1" fill="#ec4899" opacity="0.6"/>
  </g>
  
  <!-- 外框装饰 -->
  <rect x="2" y="2" width="44" height="44" rx="6" stroke="url(#borderGradient)" stroke-width="1" fill="none" opacity="0.3"/>
  
  <defs>
    <linearGradient id="brandGradient" x1="0%" y1="0%" x2="100%" y2="100%">
      <stop offset="0%" style="stop-color:#1e293b;stop-opacity:1" />
      <stop offset="30%" style="stop-color:#475569;stop-opacity:1" />
      <stop offset="70%" style="stop-color:#6366f1;stop-opacity:1" />
      <stop offset="100%" style="stop-color:#1e293b;stop-opacity:1" />
    </linearGradient>
    <linearGradient id="bookSpine" x1="0%" y1="0%" x2="100%" y2="0%">
      <stop offset="0%" style="stop-color:#3b82f6;stop-opacity:1" />
      <stop offset="100%" style="stop-color:#6366f1;stop-opacity:1" />
    </linearGradient>
    <radialGradient id="aiGradient" cx="50%" cy="50%" r="50%">
      <stop offset="0%" style="stop-color:#60a5fa;stop-opacity:1" />
      <stop offset="100%" style="stop-color:#3b82f6;stop-opacity:1" />
    </radialGradient>
    <linearGradient id="connectionGradient" x1="0%" y1="0%" x2="100%" y2="0%">
      <stop offset="0%" style="stop-color:#3b82f6;stop-opacity:1" />
      <stop offset="100%" style="stop-color:#8b5cf6;stop-opacity:1" />
    </linearGradient>
    <linearGradient id="borderGradient" x1="0%" y1="0%" x2="100%" y2="100%">
      <stop offset="0%" style="stop-color:#ffffff;stop-opacity:0.5" />
      <stop offset="100%" style="stop-color:#ffffff;stop-opacity:0.1" />
    </linearGradient>
  </defs>
</svg>