<svg width="48" height="48" viewBox="0 0 48 48" fill="none" xmlns="http://www.w3.org/2000/svg">
  <!-- 背景 -->
  <rect width="48" height="48" rx="12" fill="url(#modernGradient)"/>
  
  <!-- 智字简化设计 -->
  <g transform="translate(12, 10)">
    <!-- 知识符号 -->
    <path d="M4 4L20 4" stroke="white" stroke-width="2" stroke-linecap="round"/>
    <path d="M4 8L16 8" stroke="white" stroke-width="2" stroke-linecap="round"/>
    <path d="M4 12L20 12" stroke="white" stroke-width="2" stroke-linecap="round"/>
    
    <!-- AI神经网络节点 -->
    <circle cx="6" cy="18" r="2" fill="white" opacity="0.9"/>
    <circle cx="12" cy="16" r="2" fill="white" opacity="0.9"/>
    <circle cx="18" cy="18" r="2" fill="white" opacity="0.9"/>
    <circle cx="12" cy="22" r="2" fill="white" opacity="0.9"/>
    
    <!-- 连接线 -->
    <path d="M6 18L12 16" stroke="white" stroke-width="1" opacity="0.7"/>
    <path d="M12 16L18 18" stroke="white" stroke-width="1" opacity="0.7"/>
    <path d="M6 18L12 22" stroke="white" stroke-width="1" opacity="0.7"/>
    <path d="M12 22L18 18" stroke="white" stroke-width="1" opacity="0.7"/>
    <path d="M12 16L12 22" stroke="white" stroke-width="1" opacity="0.7"/>
  </g>
  
  <!-- 装饰性光效 -->
  <circle cx="24" cy="24" r="22" stroke="url(#glowGradient)" stroke-width="1" fill="none" opacity="0.3"/>
  
  <defs>
    <linearGradient id="modernGradient" x1="0%" y1="0%" x2="100%" y2="100%">
      <stop offset="0%" style="stop-color:#6366f1;stop-opacity:1" />
      <stop offset="50%" style="stop-color:#8b5cf6;stop-opacity:1" />
      <stop offset="100%" style="stop-color:#3b82f6;stop-opacity:1" />
    </linearGradient>
    <linearGradient id="glowGradient" x1="0%" y1="0%" x2="100%" y2="100%">
      <stop offset="0%" style="stop-color:#ffffff;stop-opacity:0.8" />
      <stop offset="100%" style="stop-color:#ffffff;stop-opacity:0.2" />
    </linearGradient>
  </defs>
</svg>