<svg width="48" height="48" viewBox="0 0 48 48" fill="none" xmlns="http://www.w3.org/2000/svg">
  <!-- 背景圆形 -->
  <circle cx="24" cy="24" r="24" fill="url(#gradient1)"/>
  
  <!-- 书本图标 -->
  <path d="M14 16C14 14.8954 14.8954 14 16 14H22C23.1046 14 24 14.8954 24 16V32C24 33.1046 23.1046 34 22 34H16C14.8954 34 14 33.1046 14 32V16Z" fill="white" fill-opacity="0.9"/>
  <path d="M24 16C24 14.8954 24.8954 14 26 14H32C33.1046 14 34 14.8954 34 16V32C34 33.1046 33.1046 34 32 34H26C24.8954 34 24 33.1046 24 32V16Z" fill="white" fill-opacity="0.7"/>
  
  <!-- AI芯片图标 -->
  <rect x="18" y="20" width="12" height="8" rx="2" fill="url(#gradient2)" fill-opacity="0.8"/>
  <circle cx="21" cy="22" r="1" fill="white"/>
  <circle cx="24" cy="22" r="1" fill="white"/>
  <circle cx="27" cy="22" r="1" fill="white"/>
  <circle cx="21" cy="26" r="1" fill="white"/>
  <circle cx="24" cy="26" r="1" fill="white"/>
  <circle cx="27" cy="26" r="1" fill="white"/>
  
  <!-- 智能光效 -->
  <circle cx="24" cy="24" r="20" stroke="url(#gradient3)" stroke-width="1" fill="none" opacity="0.3"/>
  <circle cx="24" cy="24" r="16" stroke="url(#gradient3)" stroke-width="0.5" fill="none" opacity="0.2"/>
  
  <defs>
    <linearGradient id="gradient1" x1="0%" y1="0%" x2="100%" y2="100%">
      <stop offset="0%" style="stop-color:#475569;stop-opacity:1" />
      <stop offset="50%" style="stop-color:#6366f1;stop-opacity:1" />
      <stop offset="100%" style="stop-color:#475569;stop-opacity:1" />
    </linearGradient>
    <linearGradient id="gradient2" x1="0%" y1="0%" x2="100%" y2="100%">
      <stop offset="0%" style="stop-color:#3b82f6;stop-opacity:1" />
      <stop offset="100%" style="stop-color:#8b5cf6;stop-opacity:1" />
    </linearGradient>
    <linearGradient id="gradient3" x1="0%" y1="0%" x2="100%" y2="100%">
      <stop offset="0%" style="stop-color:#ffffff;stop-opacity:0.6" />
      <stop offset="100%" style="stop-color:#ffffff;stop-opacity:0.1" />
    </linearGradient>
  </defs>
</svg>