<svg width="120" height="120" viewBox="0 0 120 120" xmlns="http://www.w3.org/2000/svg">
  <defs>
    <!-- 主要渐变色 -->
    <linearGradient id="mainGradient" x1="0%" y1="0%" x2="100%" y2="100%">
      <stop offset="0%" style="stop-color:#1e40af;stop-opacity:1" />
      <stop offset="50%" style="stop-color:#3b82f6;stop-opacity:1" />
      <stop offset="100%" style="stop-color:#60a5fa;stop-opacity:1" />
    </linearGradient>
    
    <!-- 智能光效渐变 -->
    <radialGradient id="glowGradient" cx="50%" cy="50%" r="50%">
      <stop offset="0%" style="stop-color:#fbbf24;stop-opacity:0.8" />
      <stop offset="70%" style="stop-color:#f59e0b;stop-opacity:0.4" />
      <stop offset="100%" style="stop-color:#d97706;stop-opacity:0" />
    </radialGradient>
    
    <!-- 阴影滤镜 -->
    <filter id="shadow" x="-20%" y="-20%" width="140%" height="140%">
      <feDropShadow dx="2" dy="4" stdDeviation="3" flood-color="#1e40af" flood-opacity="0.3"/>
    </filter>
    
    <!-- 发光效果 -->
    <filter id="glow" x="-50%" y="-50%" width="200%" height="200%">
      <feGaussianBlur stdDeviation="3" result="coloredBlur"/>
      <feMerge> 
        <feMergeNode in="coloredBlur"/>
        <feMergeNode in="SourceGraphic"/> 
      </feMerge>
    </filter>
  </defs>
  
  <!-- 背景圆形 -->
  <circle cx="60" cy="60" r="55" fill="url(#mainGradient)" filter="url(#shadow)" opacity="0.1"/>
  
  <!-- 智能光环 -->
  <circle cx="60" cy="60" r="50" fill="none" stroke="url(#glowGradient)" stroke-width="2" opacity="0.6">
    <animate attributeName="r" values="48;52;48" dur="3s" repeatCount="indefinite"/>
    <animate attributeName="opacity" values="0.4;0.8;0.4" dur="3s" repeatCount="indefinite"/>
  </circle>
  
  <!-- "智"字设计 -->
  <g transform="translate(25, 25)" filter="url(#glow)">
    <!-- 智字的知部分 -->
    <g fill="url(#mainGradient)">
      <!-- 矢 -->
      <rect x="8" y="5" width="2" height="25" rx="1"/>
      <rect x="5" y="12" width="8" height="2" rx="1"/>
      <rect x="5" y="18" width="8" height="2" rx="1"/>
      <polygon points="9,5 12,8 9,8" fill="url(#mainGradient)"/>
      
      <!-- 口 -->
      <rect x="18" y="8" width="12" height="12" fill="none" stroke="url(#mainGradient)" stroke-width="2" rx="2"/>
      <rect x="21" y="11" width="6" height="2" fill="url(#mainGradient)" rx="1"/>
    </g>
    
    <!-- 智字的日部分 -->
    <g fill="url(#mainGradient)" transform="translate(0, 35)">
      <rect x="5" y="0" width="25" height="20" fill="none" stroke="url(#mainGradient)" stroke-width="2.5" rx="3"/>
      <rect x="8" y="4" width="19" height="2" fill="url(#mainGradient)" rx="1"/>
      <rect x="8" y="9" width="19" height="2" fill="url(#mainGradient)" rx="1"/>
      <rect x="8" y="14" width="19" height="2" fill="url(#mainGradient)" rx="1"/>
      <rect x="16" y="4" width="2" height="12" fill="url(#mainGradient)" rx="1"/>
    </g>
  </g>
  
  <!-- "阅"字设计 -->
  <g transform="translate(65, 25)" filter="url(#glow)">
    <!-- 门字框 -->
    <g fill="url(#mainGradient)">
      <rect x="0" y="0" width="3" height="35" rx="1.5"/>
      <rect x="22" y="0" width="3" height="35" rx="1.5"/>
      <rect x="0" y="0" width="25" height="3" rx="1.5"/>
    </g>
    
    <!-- 兑部分 -->
    <g fill="url(#mainGradient)" transform="translate(4, 8)">
      <!-- 八 -->
      <rect x="2" y="0" width="2" height="12" rx="1" transform="rotate(-15 3 6)"/>
      <rect x="13" y="0" width="2" height="12" rx="1" transform="rotate(15 14 6)"/>
      
      <!-- 口 -->
      <rect x="5" y="15" width="8" height="8" fill="none" stroke="url(#mainGradient)" stroke-width="1.5" rx="1"/>
      <rect x="7" y="17" width="4" height="1.5" fill="url(#mainGradient)" rx="0.5"/>
      
      <!-- 儿 -->
      <rect x="6" y="25" width="2" height="6" rx="1"/>
      <rect x="10" y="25" width="2" height="6" rx="1"/>
      <path d="M 6 31 Q 9 33 12 31" stroke="url(#mainGradient)" stroke-width="1.5" fill="none"/>
    </g>
  </g>
  
  <!-- 装饰性智能点 -->
  <g opacity="0.7">
    <circle cx="20" cy="20" r="2" fill="#fbbf24">
      <animate attributeName="opacity" values="0.3;1;0.3" dur="2s" repeatCount="indefinite" begin="0s"/>
    </circle>
    <circle cx="100" cy="30" r="1.5" fill="#f59e0b">
      <animate attributeName="opacity" values="0.3;1;0.3" dur="2.5s" repeatCount="indefinite" begin="0.5s"/>
    </circle>
    <circle cx="30" cy="100" r="1.8" fill="#d97706">
      <animate attributeName="opacity" values="0.3;1;0.3" dur="3s" repeatCount="indefinite" begin="1s"/>
    </circle>
    <circle cx="90" cy="90" r="1.2" fill="#fbbf24">
      <animate attributeName="opacity" values="0.3;1;0.3" dur="2.2s" repeatCount="indefinite" begin="1.5s"/>
    </circle>
  </g>
  
  <!-- 连接线条 -->
  <g stroke="url(#glowGradient)" stroke-width="1" fill="none" opacity="0.4">
    <path d="M 35 60 Q 60 45 85 60">
      <animate attributeName="opacity" values="0.2;0.6;0.2" dur="4s" repeatCount="indefinite"/>
    </path>
    <path d="M 60 35 Q 75 60 60 85">
      <animate attributeName="opacity" values="0.2;0.6;0.2" dur="4s" repeatCount="indefinite" begin="2s"/>
    </path>
  </g>
  
  <!-- 外围装饰环 -->
  <circle cx="60" cy="60" r="58" fill="none" stroke="url(#mainGradient)" stroke-width="1" opacity="0.3" stroke-dasharray="5,5">
    <animateTransform attributeName="transform" type="rotate" values="0 60 60;360 60 60" dur="20s" repeatCount="indefinite"/>
  </circle>
</svg>